<?xml version="1.0" encoding="UTF-8" standalone="no"?>
<!DOCTYPE svg PUBLIC "-//W3C//DTD SVG 1.1//EN"
 "http://www.w3.org/Graphics/SVG/1.1/DTD/svg11.dtd">
<!-- Generated by graphviz version 2.26.3 (20100126.1600)
 -->
<!-- Title: Symbolic require Strategy Pages: 1 -->
<svg width="391pt" height="332pt"
 viewBox="0.00 0.00 391.00 332.00" xmlns="http://www.w3.org/2000/svg" xmlns:xlink="http://www.w3.org/1999/xlink">
<g id="graph1" class="graph" transform="scale(1 1) rotate(0) translate(4 328)">
<title>Symbolic require Strategy</title>
<polygon fill="white" stroke="white" points="-4,5 -4,-328 388,-328 388,5 -4,5"/>
<!-- Abelian -->
<g id="node1" class="node"><title>Abelian</title>
<ellipse fill="none" stroke="black" cx="200" cy="-234" rx="40.2492" ry="18"/>
<text text-anchor="middle" x="200" y="-229.4" font-family="Times,serif" font-size="14.00">Abelian</text>
</g>
<!-- Factor -->
<g id="node6" class="node"><title>Factor</title>
<ellipse fill="none" stroke="black" cx="181" cy="-162" rx="34.8827" ry="18"/>
<text text-anchor="middle" x="181" y="-157.4" font-family="Times,serif" font-size="14.00">Factor</text>
</g>
<!-- Abelian&#45;&gt;Factor -->
<g id="edge6" class="edge"><title>Abelian&#45;&gt;Factor</title>
<path fill="none" stroke="black" d="M195.205,-215.831C193.12,-207.927 190.629,-198.487 188.319,-189.737"/>
<polygon fill="black" stroke="black" points="191.663,-188.689 185.727,-179.913 184.895,-190.475 191.663,-188.689"/>
</g>
<!-- Summand -->
<g id="node11" class="node"><title>Summand</title>
<ellipse fill="none" stroke="black" cx="283" cy="-162" rx="49.1393" ry="18"/>
<text text-anchor="middle" x="283" y="-157.4" font-family="Times,serif" font-size="14.00">Summand</text>
</g>
<!-- Abelian&#45;&gt;Summand -->
<g id="edge12" class="edge"><title>Abelian&#45;&gt;Summand</title>
<path fill="none" stroke="black" d="M218.42,-218.021C229.468,-208.437 243.716,-196.078 256.017,-185.407"/>
<polygon fill="black" stroke="black" points="258.505,-187.882 263.766,-178.685 253.918,-182.594 258.505,-187.882"/>
</g>
<!-- Operators -->
<g id="node2" class="node"><title>Operators</title>
<ellipse fill="none" stroke="black" cx="200" cy="-306" rx="47.8011" ry="18"/>
<text text-anchor="middle" x="200" y="-301.4" font-family="Times,serif" font-size="14.00">Operators</text>
</g>
<!-- Operators&#45;&gt;Abelian -->
<g id="edge2" class="edge"><title>Operators&#45;&gt;Abelian</title>
<path fill="none" stroke="black" d="M200,-287.831C200,-280.131 200,-270.974 200,-262.417"/>
<polygon fill="black" stroke="black" points="203.5,-262.413 200,-252.413 196.5,-262.413 203.5,-262.413"/>
</g>
<!-- AbelianGroup -->
<g id="node4" class="node"><title>AbelianGroup</title>
<ellipse fill="none" stroke="black" cx="64" cy="-162" rx="63.8995" ry="18"/>
<text text-anchor="middle" x="64" y="-157.4" font-family="Times,serif" font-size="14.00">AbelianGroup</text>
</g>
<!-- Operators&#45;&gt;AbelianGroup -->
<g id="edge4" class="edge"><title>Operators&#45;&gt;AbelianGroup</title>
<path fill="none" stroke="black" d="M183.865,-288.916C159.967,-263.612 115.027,-216.029 87.4792,-186.86"/>
<polygon fill="black" stroke="black" points="89.949,-184.378 80.5382,-179.511 84.8599,-189.184 89.949,-184.378"/>
</g>
<!-- Variable -->
<g id="node16" class="node"><title>Variable</title>
<ellipse fill="none" stroke="black" cx="340" cy="-234" rx="42.9325" ry="18"/>
<text text-anchor="middle" x="340" y="-229.4" font-family="Times,serif" font-size="14.00">Variable</text>
</g>
<!-- Operators&#45;&gt;Variable -->
<g id="edge18" class="edge"><title>Operators&#45;&gt;Variable</title>
<path fill="none" stroke="black" d="M228.331,-291.43C250.056,-280.257 280.201,-264.754 303.695,-252.671"/>
<polygon fill="black" stroke="black" points="305.372,-255.745 312.664,-248.059 302.17,-249.52 305.372,-255.745"/>
</g>
<!-- Factors -->
<g id="node8" class="node"><title>Factors</title>
<ellipse fill="none" stroke="black" cx="169" cy="-90" rx="38.9076" ry="18"/>
<text text-anchor="middle" x="169" y="-85.4" font-family="Times,serif" font-size="14.00">Factors</text>
</g>
<!-- AbelianGroup&#45;&gt;Factors -->
<g id="edge8" class="edge"><title>AbelianGroup&#45;&gt;Factors</title>
<path fill="none" stroke="black" d="M88.353,-145.301C103.279,-135.066 122.514,-121.876 138.456,-110.945"/>
<polygon fill="black" stroke="black" points="140.657,-113.679 146.925,-105.137 136.698,-107.906 140.657,-113.679"/>
</g>
<!-- Summands -->
<g id="node13" class="node"><title>Summands</title>
<ellipse fill="none" stroke="black" cx="279" cy="-90" rx="52.9948" ry="18"/>
<text text-anchor="middle" x="279" y="-85.4" font-family="Times,serif" font-size="14.00">Summands</text>
</g>
<!-- AbelianGroup&#45;&gt;Summands -->
<g id="edge14" class="edge"><title>AbelianGroup&#45;&gt;Summands</title>
<path fill="none" stroke="black" d="M105.2,-148.203C141.241,-136.133 193.594,-118.601 231.413,-105.936"/>
<polygon fill="black" stroke="black" points="232.811,-109.159 241.182,-102.665 230.588,-102.522 232.811,-109.159"/>
</g>
<!-- Factor&#45;&gt;Factors -->
<g id="edge10" class="edge"><title>Factor&#45;&gt;Factors</title>
<path fill="none" stroke="black" d="M177.972,-143.831C176.688,-136.131 175.162,-126.974 173.736,-118.417"/>
<polygon fill="black" stroke="black" points="177.165,-117.702 172.069,-108.413 170.261,-118.853 177.165,-117.702"/>
</g>
<!-- Symbolic -->
<g id="node18" class="node"><title>Symbolic</title>
<ellipse fill="none" stroke="black" cx="279" cy="-18" rx="45.7889" ry="18"/>
<text text-anchor="middle" x="279" y="-13.4" font-family="Times,serif" font-size="14.00">Symbolic</text>
</g>
<!-- Factors&#45;&gt;Symbolic -->
<g id="edge20" class="edge"><title>Factors&#45;&gt;Symbolic</title>
<path fill="none" stroke="black" d="M191.526,-75.256C207.514,-64.7906 229.208,-50.5913 246.991,-38.9515"/>
<polygon fill="black" stroke="black" points="248.914,-41.8758 255.364,-33.4707 245.08,-36.0189 248.914,-41.8758"/>
</g>
<!-- Summand&#45;&gt;Summands -->
<g id="edge16" class="edge"><title>Summand&#45;&gt;Summands</title>
<path fill="none" stroke="black" d="M281.991,-143.831C281.563,-136.131 281.054,-126.974 280.579,-118.417"/>
<polygon fill="black" stroke="black" points="284.072,-118.204 280.023,-108.413 277.083,-118.592 284.072,-118.204"/>
</g>
<!-- Summands&#45;&gt;Symbolic -->
<g id="edge22" class="edge"><title>Summands&#45;&gt;Symbolic</title>
<path fill="none" stroke="black" d="M279,-71.8314C279,-64.131 279,-54.9743 279,-46.4166"/>
<polygon fill="black" stroke="black" points="282.5,-46.4132 279,-36.4133 275.5,-46.4133 282.5,-46.4132"/>
</g>
<!-- Variable&#45;&gt;Symbolic -->
<g id="edge24" class="edge"><title>Variable&#45;&gt;Symbolic</title>
<path fill="none" stroke="black" d="M344.811,-215.968C352.097,-184.934 362.904,-120.126 341,-72 335.063,-58.9554 324.245,-47.8365 313.289,-39.1394"/>
<polygon fill="black" stroke="black" points="315.081,-36.1107 304.963,-32.9689 310.913,-41.7348 315.081,-36.1107"/>
</g>
</g>
</svg>
